<svg xmlns="http://www.w3.org/2000/svg" viewBox="0 0 400 300" width="406" height="306" class="illustration styles_illustrationTablet__1DWOa"><g id="_567_video_call_flatline" data-name="#567_video_call_flatline"><path d="M42.09,238.71H368.61a0,0,0,0,1,0,0V239a14,14,0,0,1-14,14H56.09a14,14,0,0,1-14-14v-.26a0,0,0,0,1,0,0Z" fill="#231f20"></path><path d="M354.6,253.41H56.09A14.46,14.46,0,0,1,41.64,239v-.26a.45.45,0,0,1,.45-.44H368.6a.45.45,0,0,1,.45.44V239A14.46,14.46,0,0,1,354.6,253.41ZM42.53,239.15a13.57,13.57,0,0,0,13.56,13.38H354.6a13.57,13.57,0,0,0,13.56-13.38Z" fill="#231f20"></path><path d="M79.7,49.86H331A10.11,10.11,0,0,1,341.09,60V238.71a0,0,0,0,1,0,0H69.6a0,0,0,0,1,0,0V60A10.11,10.11,0,0,1,79.7,49.86Z" fill="#231f20"></path><path d="M341.09,239.15H69.6a.43.43,0,0,1-.44-.44V60A10.56,10.56,0,0,1,79.7,49.42H331A10.56,10.56,0,0,1,341.54,60V238.71A.44.44,0,0,1,341.09,239.15Zm-271-.88H340.65V60A9.68,9.68,0,0,0,331,50.3H79.7A9.68,9.68,0,0,0,70,60Z" fill="#231f20"></path><rect x="79.74" y="56.09" width="251.21" height="178" fill="#fff"></rect><path d="M331,234.59H79.74a.5.5,0,0,1-.5-.5v-178a.5.5,0,0,1,.5-.5H331a.5.5,0,0,1,.5.5v178A.5.5,0,0,1,331,234.59Zm-250.71-1H330.45v-177H80.24Z" fill="#231f20"></path><polygon points="99.57 210.93 97.06 210.93 98.44 207.72 99.57 210.93" fill="#28527a"></polygon><polygon points="148.85 210.93 146.34 210.93 147.47 207.72 147.48 207.74 148.85 210.93" fill="#28527a"></polygon><path d="M147.48,207.72v0l-.62,3.19H99a10.91,10.91,0,0,1-.52-3.21c.61-1,16.73-7.27,16.73-7.27l.93-.07,1.65-.1c3.28-.21,8.87-.5,11.68-.38a6,6,0,0,1,1.54.2,5.5,5.5,0,0,1,.75.31c3.42,1.45,15.27,7.08,15.75,7.31Z" fill="#28527a"></path><rect x="117.73" y="200.38" width="11.65" height="10.54" fill="#231f20"></rect><path d="M129.38,211.43H117.73a.5.5,0,0,1-.5-.5V200.38a.5.5,0,0,1,.5-.5h11.65a.51.51,0,0,1,.5.5v10.55A.51.51,0,0,1,129.38,211.43Zm-11.15-1h10.65v-9.55H118.23Z" fill="#231f20"></path><path d="M133.37,183.27c.12-.33.23-.68.32-1,1.79-6.59-.85-15.07-8.62-15.6a9.42,9.42,0,0,0-8.68,5c-2.23,3.88-1.61,8.84-1.2,13.12a1.42,1.42,0,0,0,.24.79c.45.52,1.31.18,1.89.17.83,0,1.69.12,2.52.17,1.44.07,2.88.12,4.32.1a41.77,41.77,0,0,0,6.23-.19c.88-.14,1.49-.14,2.07-.85A5.82,5.82,0,0,0,133.37,183.27Z" fill="#fff"></path><path d="M127.26,186.49H126c-.6,0-1.21,0-1.81,0-1.28,0-2.67,0-4.36-.1l-1-.08c-.5,0-1-.09-1.51-.09a4,4,0,0,0-.44.05,1.54,1.54,0,0,1-2.19-1.46l-.06-.59c-.41-4.21-.88-9,1.33-12.83a9.89,9.89,0,0,1,9.14-5.22,9.46,9.46,0,0,1,7.29,4,15,15,0,0,1,1.78,12.2,8.3,8.3,0,0,1-.34,1.07,6,6,0,0,1-1,1.8,2.82,2.82,0,0,1-2.06,1l-.31.05A20.44,20.44,0,0,1,127.26,186.49Zm-2.54-1,1.28,0a24.8,24.8,0,0,0,4.31-.19l.32,0a1.88,1.88,0,0,0,1.44-.62,5.55,5.55,0,0,0,.83-1.52h0c.12-.32.22-.66.31-1a14,14,0,0,0-1.64-11.36,8.45,8.45,0,0,0-6.53-3.61,8.87,8.87,0,0,0-8.22,4.72c-2,3.57-1.59,8.17-1.19,12.23l.06.59a1.17,1.17,0,0,0,.12.52c.14.16.47.12.93,0a4.1,4.1,0,0,1,.57-.06c.53,0,1.08.05,1.61.09l.94.08c1.67.08,3,.12,4.3.1Z" fill="#231f20"></path><path d="M118.15,184.07c-.41-3.28-5.8-4.27-5.66-.42a5.65,5.65,0,0,0,1.32,3.66,3.34,3.34,0,0,0,3.6,1" fill="#fff"></path><path d="M116.38,189a4,4,0,0,1-2.94-1.33,6.17,6.17,0,0,1-1.45-4,2.62,2.62,0,0,1,2.46-3,4,4,0,0,1,4.2,3.34.52.52,0,0,1-.44.56.5.5,0,0,1-.56-.44,3,3,0,0,0-3.12-2.46c-.6.05-1.6.37-1.54,2a5.21,5.21,0,0,0,1.19,3.34,2.86,2.86,0,0,0,3,.85.5.5,0,0,1,.38.92A3.19,3.19,0,0,1,116.38,189Z" fill="#231f20"></path><path d="M129.88,184.07c.41-3.28,5.79-4.27,5.66-.42a5.65,5.65,0,0,1-1.32,3.66,3.34,3.34,0,0,1-3.6,1" fill="#fff"></path><path d="M131.65,189a3.19,3.19,0,0,1-1.22-.23.49.49,0,0,1-.27-.65.49.49,0,0,1,.65-.27,2.87,2.87,0,0,0,3-.85,5.21,5.21,0,0,0,1.19-3.34c.06-1.6-.94-1.92-1.54-2a3,3,0,0,0-3.12,2.46.5.5,0,0,1-.56.44.51.51,0,0,1-.44-.56,4,4,0,0,1,4.2-3.34,2.62,2.62,0,0,1,2.46,3,6.17,6.17,0,0,1-1.45,4A4,4,0,0,1,131.65,189Z" fill="#231f20"></path><path d="M117.73,200.38a17.42,17.42,0,0,0,6.76,1.42c4.27.15,5-1,5-1l-.11-2.29-.23-5.31-.23-5-9.75-.33-.46,4-.15,1.31Z" fill="#fff"></path><path d="M125.23,202.31h-.75a17.94,17.94,0,0,1-7-1.47.5.5,0,0,1-.26-.5l1.42-12.5a.51.51,0,0,1,.52-.45l9.75.34a.5.5,0,0,1,.48.48l.57,12.57a.54.54,0,0,1-.08.28C129.77,201.27,128.92,202.31,125.23,202.31Zm-7-2.23a18.33,18.33,0,0,0,6.24,1.22c3.07.11,4.15-.48,4.46-.71l-.53-11.88-8.84-.31Z" fill="#231f20"></path><path d="M118.55,193.23a8.56,8.56,0,0,0,3.11,2.92c2.06,1.24,5.15,2.66,7.71,2.35l-.23-5.31a23.78,23.78,0,0,1-5.63-.16,15.92,15.92,0,0,1-4.81-1.11Z" fill="#231f20"></path><path d="M128.65,199.05c-2.71,0-5.65-1.51-7.25-2.47a9,9,0,0,1-3.28-3.1.45.45,0,0,1-.07-.3l.15-1.31a.5.5,0,0,1,.7-.4,16.13,16.13,0,0,0,4.67,1.07,22.84,22.84,0,0,0,5.52.15.51.51,0,0,1,.55.48l.23,5.31a.49.49,0,0,1-.44.52A6.66,6.66,0,0,1,128.65,199.05Zm-9.58-5.93a8.22,8.22,0,0,0,2.85,2.61c1.24.74,4.29,2.4,6.93,2.31l-.19-4.3a25.2,25.2,0,0,1-5.21-.21,19.18,19.18,0,0,1-4.33-.89Z" fill="#231f20"></path><path d="M132.55,175.23l-.41,11.83a6.87,6.87,0,0,1-.2,1.51,7.49,7.49,0,0,1-7.53,5.71l-.87,0a7.47,7.47,0,0,1-7-5.61,7.79,7.79,0,0,1-.23-2.12l.41-11.83s1.85,2.43,7.15,2.38A20.35,20.35,0,0,0,132.55,175.23Z" fill="#fff"></path><path d="M124.67,194.78h-.28l-.87,0a8,8,0,0,1-7.7-8.24l.41-11.84a.52.52,0,0,1,.35-.46.51.51,0,0,1,.55.18s1.85,2.21,6.74,2.18a20.29,20.29,0,0,0,8.45-1.77.5.5,0,0,1,.5,0,.51.51,0,0,1,.23.45l-.41,11.83a8.66,8.66,0,0,1-.21,1.6A8,8,0,0,1,124.67,194.78Zm-7.47-19-.38,10.75a6.77,6.77,0,0,0,.22,2,7,7,0,0,0,6.51,5.24l.88,0a7,7,0,0,0,7-5.33,6.64,6.64,0,0,0,.19-1.4l.38-11a22,22,0,0,1-8.14,1.54A10.9,10.9,0,0,1,117.2,175.78Z" fill="#231f20"></path><path d="M124.31,181.86s2.46,5.42,1.37,5.52a6.11,6.11,0,0,1-2.63-.71" fill="#fff"></path><path d="M125.49,187.89a6.72,6.72,0,0,1-2.67-.78.5.5,0,1,1,.47-.88,5.92,5.92,0,0,0,2.18.66,17.53,17.53,0,0,0-1.61-4.82.5.5,0,0,1,.25-.66.49.49,0,0,1,.66.25c.81,1.78,2.09,4.92,1.55,5.84a.75.75,0,0,1-.59.38Z" fill="#231f20"></path><path d="M125.67,191a9.84,9.84,0,0,1-4.74-1.35.5.5,0,0,1,.49-.87c3.69,2,6,1,6.08.9a.5.5,0,0,1,.67.23.51.51,0,0,1-.22.67A5.47,5.47,0,0,1,125.67,191Z" fill="#231f20"></path><ellipse cx="121.13" cy="181.04" rx="0.51" ry="1.16" fill="#231f20"></ellipse><ellipse cx="127.99" cy="181.04" rx="0.51" ry="1.16" fill="#231f20"></ellipse><path d="M306.85,204a.21.21,0,0,1,0,.06l-1.32,6.91H259.85a32.35,32.35,0,0,1,.91-5c.55-.88,16.9-7.62,16.9-7.62l.52,0,.36,0,1-.07s0,0,.06,0c.33,0,.68,0,1.07-.07.85,0,1.82-.1,2.84-.14,1.39-.07,2.86-.12,4.17-.14.93,0,1.77,0,2.45,0l.65,0h0l.29,0a2.93,2.93,0,0,1,.73.12l.14.05.25.1C295,199.13,306.85,204,306.85,204Z" fill="#28527a"></path><polygon points="279.18 194.88 291.29 194.92 291.08 199.54 282.52 199.54 278.37 197.55 279.18 194.88" fill="#231f20"></polygon><path d="M291.08,200h-8.56a.41.41,0,0,1-.21,0l-4.16-2a.51.51,0,0,1-.26-.6l.81-2.67a.49.49,0,0,1,.48-.36h0l12.11,0a.51.51,0,0,1,.36.15.52.52,0,0,1,.14.37l-.21,4.63A.51.51,0,0,1,291.08,200Zm-8.44-1h8l.17-3.62-11.22,0-.58,1.91Z" fill="#231f20"></path><path d="M294.44,183.13a19.8,19.8,0,0,0,1.07-4.88c.19-1.15.68-3,.16-4.13a5.58,5.58,0,0,0-2.21-1.83c-.34-2.88-3-4.64-5.76-4.79a13.53,13.53,0,0,0-4.82.85c-1.53.5-3.17,1.15-4,2.54a5,5,0,0,1-.53.89,4.22,4.22,0,0,1-.94.67c-2.14,1.4-1.91,3.31-1.64,5.5s1.09,4.64,1.32,6.93c2.69.16,5.41.39,8.13.35C287.41,185.2,293.29,185.67,294.44,183.13Z" fill="#fff"></path><path d="M287.46,185.75h-2.21c-2.22,0-4.46-.11-6.63-.25l-1.53-.1a.52.52,0,0,1-.47-.45,27.53,27.53,0,0,0-.66-3.55,34,34,0,0,1-.65-3.37c-.27-2.16-.55-4.41,1.86-6l.25-.15a2.81,2.81,0,0,0,.59-.43,3.44,3.44,0,0,0,.31-.51c.05-.1.1-.2.16-.3.87-1.51,2.55-2.22,4.24-2.76a13.69,13.69,0,0,1,5-.88c2.73.15,5.69,1.9,6.2,5a5.57,5.57,0,0,1,2.2,1.94c.5,1.07.22,2.58,0,3.79,0,.22-.08.43-.11.63s-.09.58-.14.88a15.85,15.85,0,0,1-1,4.13h0C293.91,185.51,290.24,185.75,287.46,185.75Zm-2-1h.8c2.39,0,6.82.09,7.68-1.82h0a14.65,14.65,0,0,0,.9-3.85c.05-.31.09-.61.14-.9s.07-.42.11-.65a6.33,6.33,0,0,0,.09-3.19,5,5,0,0,0-2-1.6.52.52,0,0,1-.26-.38c-.32-2.68-2.9-4.22-5.29-4.35a12.78,12.78,0,0,0-4.64.83c-1.5.48-3,1.09-3.69,2.31,0,.09-.09.17-.13.26a3,3,0,0,1-.46.71,3.07,3.07,0,0,1-.81.62l-.22.14c-1.89,1.23-1.68,2.9-1.42,5a32.93,32.93,0,0,0,.64,3.26c.24,1.07.49,2.16.63,3.26l1.12.07c2.15.14,4.37.28,6.55.25Z" fill="#231f20"></path><path d="M280,183.53c-.37-3-5.22-3.85-5.1-.38a5.1,5.1,0,0,0,1.19,3.3,3,3,0,0,0,3.24.87" fill="#fff"></path><path d="M278.42,188a3.67,3.67,0,0,1-2.68-1.22,5.59,5.59,0,0,1-1.32-3.61,2.4,2.4,0,0,1,2.26-2.75,3.63,3.63,0,0,1,3.83,3,.49.49,0,0,1-.43.56.5.5,0,0,1-.56-.43,2.64,2.64,0,0,0-2.76-2.18c-.52,0-1.39.32-1.34,1.72a4.68,4.68,0,0,0,1.05,3,2.54,2.54,0,0,0,2.69.75.5.5,0,0,1,.38.93A3,3,0,0,1,278.42,188Z" fill="#231f20"></path><path d="M290.58,183.53c.37-3,5.22-3.85,5.1-.38a5.1,5.1,0,0,1-1.19,3.3,3,3,0,0,1-3.24.87" fill="#fff"></path><path d="M292.18,188a3,3,0,0,1-1.12-.21.5.5,0,0,1,.38-.93,2.54,2.54,0,0,0,2.69-.75,4.68,4.68,0,0,0,1.05-3c.05-1.4-.82-1.68-1.34-1.72a2.64,2.64,0,0,0-2.76,2.18.5.5,0,0,1-.56.43.49.49,0,0,1-.43-.56,3.63,3.63,0,0,1,3.83-3,2.4,2.4,0,0,1,2.26,2.75,5.54,5.54,0,0,1-1.32,3.61A3.67,3.67,0,0,1,292.18,188Z" fill="#231f20"></path><path d="M279.64,198.22a15.77,15.77,0,0,0,6.09,1.28c3.84.13,4.49-.91,4.49-.91l-.09-2.06-.21-4.79-.21-4.47-8.78-.31-.42,3.64-.13,1.18Z" fill="#fff"></path><path d="M286.38,200h-.67a16.09,16.09,0,0,1-6.3-1.34.48.48,0,0,1-.26-.5l1.28-11.26a.55.55,0,0,1,.52-.44l8.78.31a.49.49,0,0,1,.48.47l.51,11.32a.59.59,0,0,1-.07.29C290.52,199.05,289.75,200,286.38,200Zm-6.2-2.1a16.44,16.44,0,0,0,5.57,1.09c2.68.09,3.67-.41,4-.62l-.47-10.63-7.87-.27Z" fill="#231f20"></path><path d="M280.38,191.78a7.87,7.87,0,0,0,2.8,2.63c1.85,1.11,4.64,2.39,6.95,2.12l-.21-4.79a21.68,21.68,0,0,1-5.07-.14,14.45,14.45,0,0,1-4.34-1Z" fill="#231f20"></path><path d="M289.48,197.06a14.14,14.14,0,0,1-6.56-2.22,8.18,8.18,0,0,1-3-2.81.48.48,0,0,1-.07-.31l.13-1.18a.51.51,0,0,1,.25-.38.53.53,0,0,1,.46,0,13.84,13.84,0,0,0,4.19,1,20.66,20.66,0,0,0,4.95.14.51.51,0,0,1,.38.12.5.5,0,0,1,.18.36l.21,4.78a.5.5,0,0,1-.44.52A5.63,5.63,0,0,1,289.48,197.06Zm-8.58-5.39a7.32,7.32,0,0,0,2.54,2.31c1.11.67,3.81,2.12,6.17,2.08l-.17-3.78a23.12,23.12,0,0,1-4.65-.19,17.4,17.4,0,0,1-3.86-.78Z" fill="#231f20"></path><path d="M293,175.56l-.37,10.66a6.56,6.56,0,0,1-.18,1.35,6.75,6.75,0,0,1-6.78,5.15l-.79,0a6.75,6.75,0,0,1-6.5-7l.37-10.65s1.67,2.19,6.44,2.14A18.42,18.42,0,0,0,293,175.56Z" fill="#fff"></path><path d="M285.89,193.22h-.25l-.79,0a7.23,7.23,0,0,1-7-7.48l.37-10.66a.5.5,0,0,1,.9-.29s1.58,2,5.9,2h.13a18.3,18.3,0,0,0,7.59-1.59.5.5,0,0,1,.5,0,.51.51,0,0,1,.23.45l-.37,10.66a7.18,7.18,0,0,1-7.23,7Zm-6.68-17.07-.34,9.59a6.42,6.42,0,0,0,.19,1.76,6.28,6.28,0,0,0,5.83,4.69l.79,0a6.22,6.22,0,0,0,6.27-4.76,6,6,0,0,0,.17-1.26l.34-9.86a19.85,19.85,0,0,1-7.28,1.37A10.27,10.27,0,0,1,279.21,176.15Z" fill="#231f20"></path><path d="M285.57,181.54s2.21,4.88,1.23,5a5.57,5.57,0,0,1-2.36-.64" fill="#fff"></path><path d="M286.63,187a6.38,6.38,0,0,1-2.43-.7.5.5,0,0,1,.47-.89,5.26,5.26,0,0,0,1.89.59,16.75,16.75,0,0,0-1.44-4.27.49.49,0,0,1,.24-.66.51.51,0,0,1,.67.25c.73,1.62,1.89,4.46,1.39,5.31a.72.72,0,0,1-.57.36Z" fill="#231f20"></path><path d="M287,189.82a9.66,9.66,0,0,1-3.74-.86.5.5,0,0,1-.26-.66.48.48,0,0,1,.65-.26c3.13,1.34,4.8.54,4.81.53a.5.5,0,0,1,.67.22.49.49,0,0,1-.21.67A4.37,4.37,0,0,1,287,189.82Z" fill="#231f20"></path><ellipse cx="282.71" cy="180.8" rx="0.46" ry="1.04" fill="#231f20"></ellipse><ellipse cx="288.89" cy="180.8" rx="0.46" ry="1.04" fill="#231f20"></ellipse><path d="M292.4,197.29l-.13.81-2,12.83h-9.13l-2.91-12.69-.22-1,.45.13,1.28.37,1,.28,5,1.42s0,0,0,0h0l4.46-1.48.64-.21h0l.31-.11Z" fill="#231f20"></path><path d="M290.22,211.43h-9.13a.49.49,0,0,1-.49-.39l-3.13-13.64a.51.51,0,0,1,.14-.47.49.49,0,0,1,.49-.12l7.62,2.17,5-1.65.07,0,1.5-.5a.51.51,0,0,1,.65.56l-.14.81L290.71,211A.5.5,0,0,1,290.22,211.43Zm-8.74-1h8.31l2-12.41-.76.26-.09,0-5,1.67a.44.44,0,0,1-.32,0h0l-6.92-2Z" fill="#231f20"></path><path d="M291.29,194.92c-.17,0-5.61,4.58-5.61,4.58l3.36,3.92,3.37-6.14Z" fill="#fff"></path><path d="M289,203.92a.49.49,0,0,1-.37-.18l-3.37-3.92a.48.48,0,0,1-.12-.36.52.52,0,0,1,.18-.35c5.58-4.69,5.7-4.69,5.93-4.69a.49.49,0,0,1,.45.29l1.12,2.36a.53.53,0,0,1,0,.46l-3.37,6.13a.52.52,0,0,1-.38.26Zm-2.65-4.37,2.56,3,2.9-5.27-.76-1.6C290.17,196.4,288,198.21,286.39,199.55Z" fill="#231f20"></path><path d="M279.18,194.88c.18,0,6.55,4.62,6.55,4.62l-3.89,3.92L278,197.28Z" fill="#fff"></path><path d="M281.84,203.92h0a.54.54,0,0,1-.37-.23l-3.89-6.14a.5.5,0,0,1,0-.49l1.22-2.41a.52.52,0,0,1,.45-.27c.2,0,.34,0,6.85,4.71a.51.51,0,0,1,.06.76l-3.89,3.92A.49.49,0,0,1,281.84,203.92Zm-3.31-6.66,3.4,5.36,3-3.06c-1.94-1.4-4.58-3.29-5.59-4Z" fill="#231f20"></path><path d="M311.4,210.93H305c1-3.55,1.76-6.47,1.88-6.91a.21.21,0,0,0,0-.06s.57-.48,1.31.67C308.35,204.93,309.68,207.39,311.4,210.93Z" fill="#28527a"></path><path d="M227.69,210.93H178.92c.46-4,1.56-7.56,4.12-8.31,0,0,10.4-4.23,12.32-5h0l.15-.05a13.07,13.07,0,0,1,3.12-.15h0c3.36.05,8.19.38,8.71.42h0l.17.06c.53.17,2.18.71,4.12,1.45.46.16.93.35,1.42.55,0,0,2.73.65,5.77,1.72s6.38,2.56,7.57,4.22C226.92,206.48,227.34,208.34,227.69,210.93Z" fill="#28527a"></path><path d="M190.27,193.43a3.8,3.8,0,0,1-1.59-1.84,3.56,3.56,0,0,1,.29-1.75c2-6,1.6-12.85,5-18.2a5.06,5.06,0,0,1,1.72-1.81,2.24,2.24,0,0,1,2.38,0c3-5.09,10.37-1.46,12.46,2.64,2.21,4.34,3.51,9.32,5.15,13.9a9.93,9.93,0,0,1,.86,4.39,3.4,3.4,0,0,1-2.73,3.15l-.79-1.38a1.08,1.08,0,0,1-.13,1.47,3.23,3.23,0,0,1-1.48.67c-5.29,1.34-11,2.4-16.12.58-.79-.28-1.72-1-1.4-1.76C193.4,194.92,191.62,194.38,190.27,193.43Z" fill="#fff"></path><path d="M201.33,196.75a18.56,18.56,0,0,1-6.23-1,3.3,3.3,0,0,1-1.54-1.09l-.27.12c-1.25.41-2.85-.61-3.31-.93h0c-.38-.27-1.63-1.21-1.81-2.17a3.75,3.75,0,0,1,.29-1.93,48.39,48.39,0,0,0,1.6-7.2c.65-3.85,1.33-7.83,3.46-11.2a5.62,5.62,0,0,1,1.89-2,2.86,2.86,0,0,1,2.47-.21,5.29,5.29,0,0,1,4.71-2.33,10.83,10.83,0,0,1,8.38,5.42,69.88,69.88,0,0,1,3.78,9.8c.46,1.41.91,2.8,1.4,4.16a10.42,10.42,0,0,1,.89,4.62,4,4,0,0,1-3.2,3.61.5.5,0,0,1-.47-.22l-.14.15a3.58,3.58,0,0,1-1.71.81A42.09,42.09,0,0,1,201.33,196.75Zm-7-3a.37.37,0,0,0,0,.23,2,2,0,0,0,1.09.8c4.94,1.75,10.53.75,15.83-.59a2.6,2.6,0,0,0,1.23-.54.76.76,0,0,0,.22-.5.13.13,0,0,0,0-.06l-.16-.29a.51.51,0,0,1,.13-.66.5.5,0,0,1,.67,0,1.09,1.09,0,0,1,.33.53l.38.65a3.08,3.08,0,0,0,1.95-2.63,9.62,9.62,0,0,0-.83-4.16c-.49-1.37-1-2.77-1.41-4.18a68.43,68.43,0,0,0-3.72-9.66,9.68,9.68,0,0,0-7.49-4.86,4.31,4.31,0,0,0-4.07,2.24.45.45,0,0,1-.34.24.51.51,0,0,1-.41-.09,1.73,1.73,0,0,0-1.82,0,4.64,4.64,0,0,0-1.53,1.63c-2,3.2-2.65,6.9-3.31,10.82a48.36,48.36,0,0,1-1.62,7.28,3.21,3.21,0,0,0-.27,1.49,3.44,3.44,0,0,0,1.38,1.51h0a3.29,3.29,0,0,0,2.39.8.61.61,0,0,0,.39-.39,1,1,0,0,1,0-.1.51.51,0,0,1,.66-.29.53.53,0,0,1,.31.65Z" fill="#231f20"></path><path d="M207,210.93h-6.87c-1.93-4.07-1.5-12.4-1.43-13.48a.75.75,0,0,0,0-.11l-.1-1.29-.26-3.56,0-.52.06-.75.32-3.93,8.26.08.29,4.82v.3l.19,3.1.1,1.69v.06l0,.59.09,1.64S209.92,207,207,210.93Z" fill="#fff"></path><path d="M207,211.44h-6.87a.52.52,0,0,1-.47-.29c-2-4.23-1.53-12.77-1.47-13.73l-.36-4.89.09-1.35.32-3.94a.51.51,0,0,1,.52-.47l8.27.09a.51.51,0,0,1,.51.48l.29,4.82v.11l.41,7.21c.23.78,2.16,7.82-.83,11.76A.51.51,0,0,1,207,211.44Zm-6.54-1h6.28c2.56-3.72.52-10.62.5-10.7a.25.25,0,0,1,0-.12l-.42-7.29s0-.1,0-.11l-.25-4.31-7.31-.07-.37,4.72.37,4.77a1.36,1.36,0,0,1,0,.24C199.11,198.4,198.68,206.32,200.41,210.41Z" fill="#231f20"></path><path d="M198.29,192.49a7.74,7.74,0,0,0,2.69,2.76c1.76,1.15,4.26,2.17,6.42,1.82l-.14-4.88a17.72,17.72,0,0,1-4.77,0,12.28,12.28,0,0,1-4.1-1Z" fill="#231f20"></path><path d="M206.48,197.64a11.49,11.49,0,0,1-5.77-2,8.16,8.16,0,0,1-2.86-2.95.49.49,0,0,1,0-.27l.09-1.27a.54.54,0,0,1,.25-.4.52.52,0,0,1,.47,0,11.76,11.76,0,0,0,3.94.91,17.06,17.06,0,0,0,4.63,0,.5.5,0,0,1,.39.11.47.47,0,0,1,.18.37l.15,4.87a.5.5,0,0,1-.42.51A5.62,5.62,0,0,1,206.48,197.64Zm-7.68-5.26a7.24,7.24,0,0,0,2.45,2.45,9.69,9.69,0,0,0,5.64,1.8l-.12-3.87a18.94,18.94,0,0,1-4.34-.09,15,15,0,0,1-3.6-.72Z" fill="#231f20"></path><path d="M202.5,193.35h.85a7.25,7.25,0,0,0,7.34-7.18,56.85,56.85,0,0,0-.63-6.67s-3.35-1.2-6-2.19c-4.42-1.67-5.61-4.06-5.61-4.06a17.94,17.94,0,0,1-1,4.64,20.52,20.52,0,0,1-2,3s-.13,3.58-.15,5.08A7.27,7.27,0,0,0,202.5,193.35Z" fill="#fff"></path><path d="M203.43,193.88h-.94A7.79,7.79,0,0,1,194.8,186c0-1.5.14-5.09.14-5.09a.64.64,0,0,1,.11-.3,19.12,19.12,0,0,0,1.91-2.92,17.49,17.49,0,0,0,1-4.47.53.53,0,0,1,.42-.47.52.52,0,0,1,.56.28s1.19,2.24,5.33,3.8c2.63,1,6,2.2,6,2.2a.51.51,0,0,1,.34.41,57.8,57.8,0,0,1,.64,6.74A7.8,7.8,0,0,1,203.43,193.88ZM196,181.11c0,.72-.13,3.6-.14,4.9a6.75,6.75,0,0,0,6.67,6.83h.93a6.76,6.76,0,0,0,6.74-6.68,52.7,52.7,0,0,0-.58-6.27c-.87-.32-3.53-1.28-5.7-2.1a12.94,12.94,0,0,1-5.07-3.21,16.91,16.91,0,0,1-.92,3.52A19.39,19.39,0,0,1,196,181.11Z" fill="#231f20"></path><path d="M203.39,186.32a8.77,8.77,0,0,1-1.27-.08.51.51,0,0,1-.44-.58.52.52,0,0,1,.58-.44,9.6,9.6,0,0,0,1.83,0,15.47,15.47,0,0,0-1.2-4.76.52.52,0,0,1,.31-.67.52.52,0,0,1,.66.31c.52,1.41,1.68,4.78,1.08,5.75a.77.77,0,0,1-.59.38A8,8,0,0,1,203.39,186.32Z" fill="#231f20"></path><ellipse cx="199.68" cy="181.56" rx="1.23" ry="0.5" transform="translate(15.93 379.23) rotate(-89.37)" fill="#231f20"></ellipse><ellipse cx="206.3" cy="181.41" rx="1.23" ry="0.5" transform="translate(22.63 385.69) rotate(-89.37)" fill="#231f20"></ellipse><path d="M211.71,199.38A50.85,50.85,0,0,1,210,210.93h-5.1c1.08-2,2.27-5.88,2.49-13.06,0-.17,0-.35,0-.53a.58.58,0,0,1,.17-.06c1.57-.69,3.9.52,4.12,1.36A3.25,3.25,0,0,1,211.71,199.38Z" fill="#fff"></path><path d="M210,211.44h-5.1a.51.51,0,0,1-.44-.25.5.5,0,0,1,0-.5c1-1.87,2.2-5.61,2.43-12.83,0-.18,0-.35,0-.52a.51.51,0,0,1,.25-.44.85.85,0,0,1,.26-.11,4.1,4.1,0,0,1,3.27.27c.39.19,1.33.71,1.52,1.44a4.38,4.38,0,0,1,0,.89,51.48,51.48,0,0,1-1.76,11.69A.51.51,0,0,1,210,211.44Zm-4.27-1h3.88a50.87,50.87,0,0,0,1.61-11h0a3.38,3.38,0,0,0,0-.61,2.06,2.06,0,0,0-1-.76,3.23,3.23,0,0,0-2.31-.29,1.48,1.48,0,0,0,0,.21C207.68,204.46,206.66,208.26,205.71,210.41Z" fill="#231f20"></path><path d="M201.18,210.93h-5.09a46.93,46.93,0,0,1-1.71-12.29,2,2,0,0,1,1-1h0a3.61,3.61,0,0,1,3.28-.31v.11C198.86,204.9,200.09,208.86,201.18,210.93Z" fill="#fff"></path><path d="M201.18,211.44h-5.09a.53.53,0,0,1-.5-.36c-1.42-4.72-1.93-11.74-1.7-12.58a2.49,2.49,0,0,1,1.21-1.28h0l0,0a4.13,4.13,0,0,1,3.76-.31.51.51,0,0,1,.28.45v.11c.2,7.47,1.45,11.32,2.46,13.24a.52.52,0,0,1-.46.75Zm-4.71-1h3.89c-1-2.18-2-6-2.21-12.72a3.34,3.34,0,0,0-2.51.41l0,0c-.53.31-.7.57-.72.64A47.56,47.56,0,0,0,196.47,210.41Z" fill="#231f20"></path><path d="M202.67,189.17a6.85,6.85,0,0,1-4.27-1.48.51.51,0,1,1,.62-.82c3.63,2.78,7.5.19,7.66.08a.52.52,0,1,1,.59.85A9,9,0,0,1,202.67,189.17Z" fill="#231f20"></path><path d="M269.94,146.06c.76-1.42,2-2.28,2.59-3.8a14.22,14.22,0,0,0,.6-6.35c-.25-2.95-.81-5.95-.1-8.81.19-.76.68-1.64,1.45-1.58.53,0,.91.53,1.19,1a13.6,13.6,0,0,1,1.92,5.59c3-1.06,6-4.53,8.5-6.5q4.76-3.68,9.64-7.17c.5-.36,1.2-.71,1.67-.33a1,1,0,0,1,.31.52c.55,1.66-.91,3.26-2.26,4.37a76.62,76.62,0,0,1-6.65,4.83c1.41-.91,3.73,6,3.81,6.78.31,3.26-1.05,5.24-3.08,7.57-3,3.45-8,16-8,16,.22-.55-5.22-5.47-5.71-6Z" fill="#fff"></path><path d="M281.51,158.69a.39.39,0,0,1-.18,0,.5.5,0,0,1-.32-.46,49,49,0,0,0-4.7-4.81c-.44-.42-.77-.73-.87-.84l-5.86-6.14a.5.5,0,0,1-.08-.58,10.06,10.06,0,0,1,1.25-1.74,7.63,7.63,0,0,0,1.32-2,14,14,0,0,0,.56-6.13c-.05-.58-.11-1.16-.17-1.74a20.66,20.66,0,0,1,.09-7.23c.25-1,.89-2.06,2-2a2.19,2.19,0,0,1,1.58,1.21,14.13,14.13,0,0,1,1.9,5.14,22.79,22.79,0,0,0,5.24-4c.88-.82,1.72-1.58,2.54-2.21,3.14-2.43,6.39-4.85,9.66-7.19,1.17-.84,1.88-.63,2.28-.3a1.61,1.61,0,0,1,.47.74c.5,1.54-.31,3.19-2.43,4.92-1.85,1.51-3.79,2.94-5.79,4.27,1.54,1.42,3.08,6.31,3.13,6.9.34,3.56-1.24,5.71-3.2,8C287,145.86,282,158.25,282,158.37h0A.51.51,0,0,1,281.51,158.69Zm-.48-.46h0ZM270.56,146l5.6,5.87c.1.11.41.4.84.8a59.68,59.68,0,0,1,4.42,4.43c1.23-3,5.16-12.3,7.73-15.25,1.86-2.13,3.26-4,3-7.19-.13-1.34-2.28-6.38-3-6.41h0a.5.5,0,0,1-.69-.15.49.49,0,0,1,.15-.69h0a74.06,74.06,0,0,0,6.6-4.8c1.76-1.44,2.47-2.72,2.11-3.83a.61.61,0,0,0-.16-.28c-.16-.14-.57,0-1.06.34-3.25,2.33-6.49,4.74-9.63,7.17-.78.6-1.61,1.36-2.48,2.16-2,1.79-4,3.65-6.15,4.41a.5.5,0,0,1-.67-.42,13.13,13.13,0,0,0-1.85-5.38c-.29-.48-.55-.72-.8-.74-.41,0-.77.6-.92,1.2a20.1,20.1,0,0,0-.07,6.88c.06.59.13,1.18.17,1.77a14.84,14.84,0,0,1-.62,6.58,8.59,8.59,0,0,1-1.48,2.26A11.44,11.44,0,0,0,270.56,146Z" fill="#231f20"></path><path d="M177.73,160.9c4.39-14.39,8-25.87,8-25.87h0c.3.1,5.37,1.76,13.3.42a39.22,39.22,0,0,0,4.45-1l.23-.06s2.48,11.75,5.51,26.51Z" fill="#231f20"></path><path d="M245.41,160.9H203c.36-14.11.57-25.3.57-25.3l-4.51-.14L185.72,135s0,9.57.06,25.87H157.53c-2.32-8.08-4.08-14.1-2.12-16.25,3.91-4.32,23.62-10.34,23.62-10.34a28.54,28.54,0,0,1,6.66-.68c5.49-.14,12.81.16,17.77.42,3.29.16,5.54.32,5.54.32s16.15,0,19.55,5.84Z" fill="#28527a"></path><path d="M284.36,155.09s-.83,2.27-2.22,5.81H259.93l9.81-16.39.82.6,12.62,9.12Z" fill="#28527a"></path><path d="M164.42,110.69a49.34,49.34,0,0,0,.47,5.92,7.65,7.65,0,0,1-1.46,5.6,6.52,6.52,0,0,1-6.16,1.68,19,19,0,0,1-6-2.77,9.82,9.82,0,0,0,4.73,8.31c4.9,3.09,14.47,2.64,19.7.6a14.25,14.25,0,0,0,8.66-8.89c1.17-4,.15-8.29-1.47-12.11-1.79-4.24-5.2-8.13-10.19-8.07C168.21,101,164.63,106.73,164.42,110.69Z" fill="#fff"></path><path d="M165.9,132.15c-3.86,0-7.67-.7-10.21-2.3a10.34,10.34,0,0,1-5-8.75.47.47,0,0,1,.26-.42.5.5,0,0,1,.5,0,18.91,18.91,0,0,0,5.88,2.71c1.79.36,4.22.15,5.69-1.52,1-1.17,1.48-2.93,1.33-5.24,0-.72-.14-1.45-.23-2.16a22,22,0,0,1-.24-3.82h0c.22-4,3.82-10.15,8.74-10.2,4.53,0,8.38,3,10.65,8.37,2,4.76,2.52,9,1.49,12.46a14.69,14.69,0,0,1-9,9.21A28.74,28.74,0,0,1,165.9,132.15ZM151.75,122a9.57,9.57,0,0,0,4.47,7c4.52,2.85,13.89,2.64,19.26.55a13.65,13.65,0,0,0,8.36-8.56c1-3.27.48-7.24-1.45-11.78-1-2.34-3.9-7.77-9.62-7.77h-.1c-4.21,0-7.55,5.56-7.75,9.25a19.59,19.59,0,0,0,.24,3.64c.09.73.18,1.48.23,2.22.16,2.59-.37,4.6-1.58,6-1.75,2-4.58,2.25-6.64,1.84A17.14,17.14,0,0,1,151.75,122Z" fill="#231f20"></path><path d="M171.83,107.91a6.52,6.52,0,0,1-3.56-3.93,5.5,5.5,0,0,1,1-5.14,3.58,3.58,0,0,1,1.34-1,3.71,3.71,0,0,1,1.62-.23,6.15,6.15,0,0,1,5.44,4.25C178.85,105.79,175.94,109.78,171.83,107.91Z" fill="#231f20"></path><path d="M173.86,108.88a5.51,5.51,0,0,1-2.24-.51h0a7.06,7.06,0,0,1-3.83-4.25,6,6,0,0,1,1.11-5.61,3.93,3.93,0,0,1,1.52-1.14,4.09,4.09,0,0,1,1.83-.27,6.69,6.69,0,0,1,5.9,4.61,5.92,5.92,0,0,1-1.48,6.12A4.19,4.19,0,0,1,173.86,108.88ZM172,107.46a3.54,3.54,0,0,0,4-.38,4.91,4.91,0,0,0,1.18-5.08,5.63,5.63,0,0,0-5-3.9,3.49,3.49,0,0,0-1.4.19,3.16,3.16,0,0,0-1.15.87,5,5,0,0,0-.9,4.67,6,6,0,0,0,3.28,3.63Z" fill="#231f20"></path><path d="M185,74l-.09.06c-.55.39-2.5,2.67-3,2.69-20.33.6-12.16,29-1.87,37,4.1,3.2,11.25,5.9,16.44,4.67,3.84-.92,7.37-4.13,7.52-8.08,4-.32,8.31-.77,11.27-3.47a13.49,13.49,0,0,0,3.56-6.21,22.71,22.71,0,0,0-1.51-17.14c-4.89-9.08-17.89-14.67-27.79-11.78A16.1,16.1,0,0,0,185,74Z" fill="#fff"></path><path d="M193.75,119.27a24.94,24.94,0,0,1-14-5.08c-7.09-5.53-13.11-20.33-10-29.72,1.18-3.62,4.26-8,12.19-8.21a17.27,17.27,0,0,0,1.59-1.51,9.18,9.18,0,0,1,1.14-1.08l.09-.07a16.61,16.61,0,0,1,4.68-2.29c10.07-2.94,23.33,2.68,28.37,12a23.15,23.15,0,0,1,1.55,17.52,13.79,13.79,0,0,1-3.7,6.44c-3.09,2.81-7.66,3.28-11.14,3.56-.41,4.19-4.21,7.23-7.88,8.11A12.75,12.75,0,0,1,193.75,119.27Zm1.43-47.75a19.6,19.6,0,0,0-5.48.75,15.51,15.51,0,0,0-4.39,2.15h0l-.08.06a13.05,13.05,0,0,0-1,1c-1.34,1.37-1.83,1.8-2.27,1.81-5.9.17-9.69,2.7-11.27,7.52-3,9,2.86,23.29,9.7,28.62,4,3.12,11,5.78,16,4.58,3.43-.81,7-3.69,7.14-7.61a.51.51,0,0,1,.46-.48c4.22-.34,8.24-.85,11-3.34a12.83,12.83,0,0,0,3.41-6,22.1,22.1,0,0,0-1.47-16.76C213,76.46,203.7,71.52,195.18,71.52ZM185,74h0Z" fill="#231f20"></path><path d="M207.69,105.06c1.05-6.11,11.22-7.5,10.64-.29a10.64,10.64,0,0,1-2.78,6.74,6.3,6.3,0,0,1-6.83,1.52" fill="#fff"></path><path d="M210.89,114a5.54,5.54,0,0,1-2.38-.51.5.5,0,1,1,.42-.9,5.76,5.76,0,0,0,6.27-1.43,10.18,10.18,0,0,0,2.63-6.42c.2-2.46-.93-4-3.09-4.29a6.07,6.07,0,0,0-6.56,4.71.5.5,0,0,1-1-.17,7,7,0,0,1,7.66-5.53c2.11.26,4.26,1.81,4,5.36a11.2,11.2,0,0,1-2.93,7A7.19,7.19,0,0,1,210.89,114Z" fill="#231f20"></path><path d="M182.37,104.78c-.91-6.13-11.06-7.75-10.63-.53a10.61,10.61,0,0,0,2.63,6.8,6.28,6.28,0,0,0,6.8,1.68" fill="#fff"></path><path d="M179.11,113.64a7.17,7.17,0,0,1-5.1-2.24,11.19,11.19,0,0,1-2.77-7.12c-.21-3.55,2-5,4.08-5.27a7,7,0,0,1,7.55,5.7.51.51,0,0,1-.42.57.5.5,0,0,1-.57-.42,6.07,6.07,0,0,0-6.45-4.86c-2.17.23-3.34,1.77-3.19,4.22a10.22,10.22,0,0,0,2.49,6.49,5.77,5.77,0,0,0,6.24,1.56.5.5,0,1,1,.4.91A5.64,5.64,0,0,1,179.11,113.64Z" fill="#231f20"></path><path d="M185.73,135s5.63,5.27,9.55,5.19,8.27-4.62,8.27-4.62l-.25-4.28-.57-9.95-.55-9.31-16-.17-.61,7.59-.19,2.47Z" fill="#fff"></path><path d="M195.18,140.72c-4.06,0-9.56-5.11-9.79-5.33a.48.48,0,0,1-.16-.35L184.92,122l.8-10.11a.5.5,0,0,1,.5-.46h0l16,.17a.5.5,0,0,1,.49.47l1.37,23.54a.49.49,0,0,1-.14.38c-.18.19-4.55,4.67-8.62,4.77Zm-9-5.92c.91.82,5.64,4.92,9,4.92h.09c3.26-.08,7-3.54,7.77-4.31l-1.33-22.85-15-.17-.76,9.6Z" fill="#231f20"></path><path d="M185.42,122a15.06,15.06,0,0,0,5.19,5.33c3.41,2.22,8.52,4.73,12.69,4l-.57-9.95a34.65,34.65,0,0,1-9.21,0,23.33,23.33,0,0,1-7.91-1.86Z" fill="#231f20"></path><path d="M201.83,131.94c-4.29,0-8.94-2.58-11.5-4.24a15.28,15.28,0,0,1-5.35-5.52.43.43,0,0,1-.06-.27l.19-2.46a.5.5,0,0,1,.25-.4.49.49,0,0,1,.47,0,23.28,23.28,0,0,0,7.75,1.8,33.5,33.5,0,0,0,9.07,0,.5.5,0,0,1,.39.11.52.52,0,0,1,.19.36l.57,9.95a.5.5,0,0,1-.42.53A9.83,9.83,0,0,1,201.83,131.94Zm-15.9-10.1a14.47,14.47,0,0,0,4.95,5c2.14,1.39,7.48,4.5,11.9,4l-.52-8.95a35.28,35.28,0,0,1-8.79-.11,25.86,25.86,0,0,1-7.42-1.59Z" fill="#231f20"></path><path d="M193.54,123.61l1.64,0a14,14,0,0,0,14.18-13.88l.15-13.28s-7.84-1.91-12.92-3.83c-8.53-3.23-10.83-7.84-10.83-7.84a34.81,34.81,0,0,1-2,9A40.83,40.83,0,0,1,180,99.62s-.25,6.92-.28,9.81A14,14,0,0,0,193.54,123.61Z" fill="#fff"></path><path d="M195.33,124.13h-.16l-1.64,0a14.53,14.53,0,0,1-14.36-14.69c0-2.86.28-9.75.28-9.82a.53.53,0,0,1,.1-.29,39.41,39.41,0,0,0,3.75-5.74,34.6,34.6,0,0,0,2-8.8.51.51,0,0,1,.4-.46.52.52,0,0,1,.55.27s2.34,4.49,10.55,7.59c5,1.89,12.79,3.79,12.86,3.81a.51.51,0,0,1,.39.49l-.15,13.29A14.55,14.55,0,0,1,195.33,124.13ZM180.44,99.8c0,1-.24,7-.27,9.63a13.52,13.52,0,0,0,13.38,13.68h0l1.63,0h.15a13.55,13.55,0,0,0,13.53-13.38L209,96.86c-1.64-.41-8.18-2.09-12.59-3.75-6-2.29-9-5.25-10.3-6.88a34,34,0,0,1-1.9,7.74A38.32,38.32,0,0,1,180.44,99.8Z" fill="#231f20"></path><path d="M194.71,113.72a19,19,0,0,1-2.37-.14.5.5,0,1,1,.13-1,18.11,18.11,0,0,0,3.95,0c.62-.43-.41-5-2.19-9.83a.49.49,0,0,1,.29-.64.5.5,0,0,1,.65.29c.54,1.47,3.21,8.91,2.13,10.67a1,1,0,0,1-.77.51A16.53,16.53,0,0,1,194.71,113.72Z" fill="#231f20"></path><ellipse cx="188.1" cy="100.84" rx="2.38" ry="0.97" transform="translate(85.19 287.82) rotate(-89.37)" fill="#231f20"></ellipse><ellipse cx="200.88" cy="100.54" rx="2.38" ry="0.97" transform="translate(98.14 300.3) rotate(-89.37)" fill="#231f20"></ellipse><path d="M194.72,117c-.3,0-.6,0-.9,0a12.78,12.78,0,0,1-8.42-4.83.5.5,0,0,1,.1-.7.51.51,0,0,1,.7.11s3,4,7.72,4.42c3.24.29,6.55-1.15,9.84-4.28a.5.5,0,1,1,.69.72C201.24,115.48,198,117,194.72,117Z" fill="#231f20"></path><path d="M183.49,80.65c2.1,5.45,4.87,10.92,9.56,14.41a32.32,32.32,0,0,0,7.77,4c4.1,1.59,8.11,1.79,11.59,4.66a20.28,20.28,0,0,1,6.73,10.48,23.4,23.4,0,0,0-1.67-20c-3.29-5.56-8.72-9.46-14.08-13.06-2.93-2-6.12-4-9.65-3.9" fill="#fff"></path><path d="M219.14,114.65h0a.5.5,0,0,1-.46-.37,19.77,19.77,0,0,0-6.56-10.23c-2.27-1.87-4.78-2.57-7.45-3.31-1.3-.36-2.64-.74-4-1.26a33.38,33.38,0,0,1-7.89-4c-5.09-3.79-7.87-9.81-9.73-14.63a.5.5,0,0,1,.94-.36c1.8,4.7,4.5,10.55,9.39,14.19A31.29,31.29,0,0,0,201,98.54c1.31.51,2.63.88,3.91,1.24,2.77.77,5.39,1.5,7.82,3.5a21,21,0,0,1,6.44,9.24A23.12,23.12,0,0,0,217,94.43c-3.21-5.43-8.64-9.35-13.93-12.89-3-2.05-6-3.85-9.36-3.82a.47.47,0,0,1-.51-.49.51.51,0,0,1,.49-.51c3.6,0,6.76,1.85,9.94,4,5.38,3.61,10.91,7.6,14.23,13.22a24,24,0,0,1,1.7,20.4A.48.48,0,0,1,219.14,114.65Z" fill="#231f20"></path><path d="M161.18,160.9H135.6c10.1-8.69,19.81-16.25,19.81-16.25Z" fill="#28527a"></path><path d="M227.85,161.4h-.11a.49.49,0,0,1-.38-.59c.51-2.36,1-4.32,1.47-5.85a.5.5,0,1,1,.95.28c-.45,1.51-.94,3.45-1.45,5.78A.49.49,0,0,1,227.85,161.4Z" fill="#231f20"></path><path d="M278.06,131.48s5.35,1.34,3.79,8.35" fill="#fff"></path><path d="M281.85,140.33l-.11,0a.49.49,0,0,1-.38-.59c1.43-6.43-3.22-7.7-3.42-7.76a.49.49,0,0,1-.36-.6.51.51,0,0,1,.6-.37c.06,0,5.8,1.54,4.16,8.94A.51.51,0,0,1,281.85,140.33Z" fill="#231f20"></path><circle cx="191.05" cy="220.8" r="3.87" fill="#28527a"></circle><circle cx="205.35" cy="220.8" r="3.87" fill="#28527a"></circle><circle cx="219.64" cy="220.8" r="3.87" fill="#28527a"></circle><path d="M324.19,161.4H86.5a.5.5,0,0,1-.5-.5V65.55a.51.51,0,0,1,.5-.5H324.19a.51.51,0,0,1,.5.5V160.9A.5.5,0,0,1,324.19,161.4ZM87,160.4H323.69V66.05H87Z" fill="#231f20"></path><path d="M163.63,211.43H86.5a.51.51,0,0,1-.5-.5V165.42a.51.51,0,0,1,.5-.5h77.13a.51.51,0,0,1,.5.5v45.51A.51.51,0,0,1,163.63,211.43Zm-76.63-1h76.13V165.92H87Z" fill="#231f20"></path><path d="M243.9,211.43H166.79a.5.5,0,0,1-.5-.5V165.42a.5.5,0,0,1,.5-.5H243.9a.5.5,0,0,1,.5.5v45.51A.5.5,0,0,1,243.9,211.43Zm-76.61-1H243.4V165.92H167.29Z" fill="#231f20"></path><path d="M324.19,211.43H247.07a.5.5,0,0,1-.5-.5V165.42a.5.5,0,0,1,.5-.5h77.12a.5.5,0,0,1,.5.5v45.51A.5.5,0,0,1,324.19,211.43Zm-76.62-1h76.12V165.92H247.57Z" fill="#231f20"></path><rect x="143.84" y="168.01" width="16.14" height="3.11" rx="1.56" fill="#d1d3d4"></rect><rect x="269.94" y="73.05" width="44.92" height="5.93" rx="2.97" fill="#d1d3d4"></rect><polygon points="232.25 243.63 178.44 243.63 173.74 238.71 236.95 238.71 232.25 243.63" fill="#939598"></polygon></g></svg>