<?xml version="1.0" standalone="no"?>
<svg xmlns:xlink="http://www.w3.org/1999/xlink" id="wave" style="transform:rotate(180deg); transition: 0.3s" viewBox="0 0 1440 490" version="1.1" xmlns="http://www.w3.org/2000/svg"><defs><linearGradient id="sw-gradient-0" x1="0" x2="0" y1="1" y2="0"><stop stop-color="rgba(40, 82, 122, 1)" offset="0%"/><stop stop-color="rgba(40, 82, 122, 1)" offset="100%"/></linearGradient></defs><path style="transform:translate(0, 0px); opacity:1" fill="url(#sw-gradient-0)" d="M0,49L120,49C240,49,480,49,720,98C960,147,1200,245,1440,245C1680,245,1920,147,2160,89.8C2400,33,2640,16,2880,24.5C3120,33,3360,65,3600,98C3840,131,4080,163,4320,179.7C4560,196,4800,196,5040,196C5280,196,5520,196,5760,163.3C6000,131,6240,65,6480,106.2C6720,147,6960,294,7200,310.3C7440,327,7680,212,7920,187.8C8160,163,8400,229,8640,220.5C8880,212,9120,131,9360,147C9600,163,9840,278,10080,334.8C10320,392,10560,392,10800,326.7C11040,261,11280,131,11520,81.7C11760,33,12000,65,12240,81.7C12480,98,12720,98,12960,89.8C13200,82,13440,65,13680,114.3C13920,163,14160,278,14400,302.2C14640,327,14880,261,15120,245C15360,229,15600,261,15840,261.3C16080,261,16320,229,16560,196C16800,163,17040,131,17160,114.3L17280,98L17280,490L17160,490C17040,490,16800,490,16560,490C16320,490,16080,490,15840,490C15600,490,15360,490,15120,490C14880,490,14640,490,14400,490C14160,490,13920,490,13680,490C13440,490,13200,490,12960,490C12720,490,12480,490,12240,490C12000,490,11760,490,11520,490C11280,490,11040,490,10800,490C10560,490,10320,490,10080,490C9840,490,9600,490,9360,490C9120,490,8880,490,8640,490C8400,490,8160,490,7920,490C7680,490,7440,490,7200,490C6960,490,6720,490,6480,490C6240,490,6000,490,5760,490C5520,490,5280,490,5040,490C4800,490,4560,490,4320,490C4080,490,3840,490,3600,490C3360,490,3120,490,2880,490C2640,490,2400,490,2160,490C1920,490,1680,490,1440,490C1200,490,960,490,720,490C480,490,240,490,120,490L0,490Z"/></svg>