<?xml version="1.0" standalone="no"?><svg xmlns="http://www.w3.org/2000/svg" viewBox="0 0 1440 320"><path fill="#28527A" fill-opacity="1" d="M0,288L24,250.7C48,213,96,139,144,138.7C192,139,240,213,288,224C336,235,384,181,432,165.3C480,149,528,171,576,165.3C624,160,672,128,720,106.7C768,85,816,75,864,96C912,117,960,171,1008,181.3C1056,192,1104,160,1152,122.7C1200,85,1248,43,1296,64C1344,85,1392,171,1416,213.3L1440,256L1440,0L1416,0C1392,0,1344,0,1296,0C1248,0,1200,0,1152,0C1104,0,1056,0,1008,0C960,0,912,0,864,0C816,0,768,0,720,0C672,0,624,0,576,0C528,0,480,0,432,0C384,0,336,0,288,0C240,0,192,0,144,0C96,0,48,0,24,0L0,0Z"></path></svg>