<?xml version="1.0" standalone="no"?><svg xmlns="http://www.w3.org/2000/svg" viewBox="0 0 1440 320"><path fill="#28527A" fill-opacity="1" d="M0,256L17.1,256C34.3,256,69,256,103,224C137.1,192,171,128,206,138.7C240,149,274,235,309,266.7C342.9,299,377,277,411,261.3C445.7,245,480,235,514,208C548.6,181,583,139,617,133.3C651.4,128,686,160,720,160C754.3,160,789,128,823,117.3C857.1,107,891,117,926,112C960,107,994,85,1029,101.3C1062.9,117,1097,171,1131,202.7C1165.7,235,1200,245,1234,234.7C1268.6,224,1303,192,1337,181.3C1371.4,171,1406,181,1423,186.7L1440,192L1440,0L1422.9,0C1405.7,0,1371,0,1337,0C1302.9,0,1269,0,1234,0C1200,0,1166,0,1131,0C1097.1,0,1063,0,1029,0C994.3,0,960,0,926,0C891.4,0,857,0,823,0C788.6,0,754,0,720,0C685.7,0,651,0,617,0C582.9,0,549,0,514,0C480,0,446,0,411,0C377.1,0,343,0,309,0C274.3,0,240,0,206,0C171.4,0,137,0,103,0C68.6,0,34,0,17,0L0,0Z"></path></svg>